# xmcd
#
# Track frame offsets:
#	150
#	11585
#	25044
#	36948
#	49520
#	69025
#	79272
#	96037
#	106754
#	120855
#	129305
#	142077
#	154252
#	164353
#	174903
#	186038
#	193836
#	206273
#	217512
#	229842
#
# Disc length: 3184 seconds
#
# Revision: 0
# Processed by: cddbd v1.5.1PL2 Copyright (c) Steve Scherf et al.
# Submitted via: dBpowerAMP V4.0
#
DISCID=f40c6e14
DTITLE=Various Artist - Great Country Hits CD2
DYEAR=2002
DGENRE=Country
TTITLE0=Bill Monroe - Orange Blossom Special
TTITLE1=Carl Perkins - Country Soul
TTITLE2=Dolly Parton - Little Orphans
TTITLE3=Ferlin Huskey - Don't fall asleep at the Wheel
TTITLE4=Kenny Rogers - Lay it down
TTITLE5=Patsy Cline - I love you Honey
TTITLE6=Johnny Lee - Daddy 2
TTITLE7=Jim Reeves - If Heartaches are the Fashion
TTITLE8=Kenny Rogers - Loser
TTITLE9=Johnny Cash - Guess Things happen that Way
TTITLE10=Johnny Paycheck - I'm not looking back anymore
TTITLE11=Waylon Jennings - Don't think twice, it's allright
TTITLE12=Carl Perkins - Daddy sang Bass
TTITLE13=Patsy Cline - Gotta Lot of Rhythm
TTITLE14=Johnny Cash - Cry, cry, cry
TTITLE15=Bill Monroe - Footprints in the Snow
TTITLE16=Patsy Cline - Finger Prints
TTITLE17=Merle Haggard - Begging to you
TTITLE18=Lynn Anderson - Rose Garden
TTITLE19=Johnny Cash - Blue Train
EXTD=
EXTT0=
EXTT1=
EXTT2=
EXTT3=
EXTT4=
EXTT5=
EXTT6=
EXTT7=
EXTT8=
EXTT9=
EXTT10=
EXTT11=
EXTT12=
EXTT13=
EXTT14=
EXTT15=
EXTT16=
EXTT17=
EXTT18=
EXTT19=
PLAYORDER=
